<?xml version="1.0" standalone="no"?>
<!DOCTYPE svg PUBLIC "-//W3C//DTD SVG 20010904//EN"
 "http://www.w3.org/TR/2001/REC-SVG-20010904/DTD/svg10.dtd">
<svg version="1.0" xmlns="http://www.w3.org/2000/svg"
 width="700.000000pt" height="700.000000pt" viewBox="0 0 700.000000 700.000000"
 preserveAspectRatio="xMidYMid meet">
<metadata>
Created by potrace 1.14, written by Peter Selinger 2001-2017
</metadata>
<g transform="translate(0.000000,700.000000) scale(0.100000,-0.100000)"
fill="#000000" stroke="none">
<path d="M3426 5961 c-3 -5 -85 -208 -182 -452 -96 -244 -247 -624 -334 -844
-88 -220 -261 -656 -385 -970 -124 -313 -230 -579 -235 -590 -5 -11 -34 -83
-64 -160 -29 -77 -120 -306 -201 -510 -327 -823 -379 -955 -422 -1065 -25 -63
-51 -128 -58 -145 -7 -16 -25 -61 -40 -100 -15 -38 -30 -76 -33 -84 -4 -11 20
-13 151 -8 86 3 160 8 164 10 4 3 29 8 55 11 62 8 204 50 278 81 147 62 269
145 396 270 192 189 309 372 450 700 75 176 197 617 228 830 4 22 13 78 21
125 8 47 17 105 20 130 3 25 10 77 15 115 5 39 12 97 15 130 4 33 8 78 10 100
2 22 7 81 10 130 4 50 8 110 10 135 13 167 19 464 18 835 l-1 430 20 -50 c11
-28 24 -59 29 -70 4 -11 67 -168 139 -350 72 -181 135 -339 140 -350 5 -11 77
-191 160 -400 83 -209 158 -394 166 -412 7 -17 14 -34 14 -38 0 -3 15 -43 34
-88 19 -45 89 -217 154 -382 66 -165 263 -659 439 -1097 l318 -798 304 0 c238
0 302 3 298 12 -3 7 -123 308 -267 668 -145 360 -268 669 -274 685 -6 17 -331
828 -721 1803 l-709 1772 -62 0 c-35 0 -65 -4 -68 -9z m-172 -1263 c-2 -271
-5 -509 -7 -528 -3 -19 -7 -91 -11 -160 -4 -69 -9 -136 -11 -150 -2 -14 -7
-63 -10 -110 -4 -47 -8 -98 -10 -115 -3 -16 -7 -59 -11 -95 -3 -36 -7 -72 -9
-80 -1 -8 -6 -40 -10 -70 -56 -446 -179 -937 -315 -1255 -140 -329 -299 -563
-433 -634 -94 -51 -210 -36 -285 37 -51 51 -68 79 -98 169 -61 181 -28 446 86
688 5 11 37 90 71 175 33 85 90 229 126 320 36 91 71 179 78 195 8 17 57 140
110 275 52 135 100 254 105 265 5 11 75 187 155 390 80 204 150 379 155 390
14 29 290 725 290 730 0 14 21 55 29 55 5 0 7 -200 5 -492z"/>
</g>
</svg>
