<?xml version="1.0" encoding="utf-8"?>
<!-- Generator: Adobe Illustrator 27.0.0, SVG Export Plug-In . SVG Version: 6.00 Build 0)  -->
<svg version="1.1" id="Vrstva_1" xmlns="http://www.w3.org/2000/svg" xmlns:xlink="http://www.w3.org/1999/xlink" x="0px" y="0px"
	 viewBox="0 0 283.5 283.5" style="enable-background:new 0 0 283.5 283.5;" xml:space="preserve">
<style type="text/css">
	.st0{fill:#FFFFFF;}
	.st1{fill:#FFFFFF;stroke:#000000;stroke-width:0.25;stroke-miterlimit:10;}
</style>
<g>
	<circle cx="141.7" cy="146.8" r="122"/>
	<g>
		<path class="st0" d="M93.7,100.5c-3.5-3-7.1-5.1-13.3-5.1c-10.3,0-17.7,8.3-17.7,19.7v8H62c-1.8,0-3.3,1.5-3.3,3.3
			c0,1.8,1.5,3.3,3.3,3.3h0.6v65.1c0,1.8,1.5,3.3,3.3,3.3c1.8,0,3.3-1.5,3.3-3.3v-65.1h10.5c1.8,0,3.3-1.5,3.3-3.3
			c0-1.8-1.5-3.3-3.3-3.3H69.3v-8c0-7.7,4.6-13.1,11.1-13.1c3.8,0,6,0.8,9,3.5c1.3,1.2,3.4,1,4.6-0.3c0.6-0.7,0.9-1.5,0.8-2.4
			C94.8,101.9,94.4,101.1,93.7,100.5z"/>
		<path class="st1" d="M113.5,130.5c-0.5-0.4-0.5-1.2,0-1.7c4.1-3.6,9-5.6,15.1-5.6c6.7,0,15.7,4.3,15.7,17.8v28.5
			c0,0.6-0.5,1.1-1.1,1.1h-0.4c-0.6,0-1.1-0.5-1.1-1.1v-3.4c-4.2,3.8-9.7,5.4-15.2,5.4c-9.7,0-18.4-6.7-18.4-17.1
			c0-10.4,8.6-17,18.4-17c6.4,0,11.6,2.5,15.2,6l0-2.4c0-11.7-7.4-15.2-13.1-15.2c-5.5,0-9.9,1.8-13.3,4.9c-0.4,0.4-1.1,0.4-1.5,0
			L113.5,130.5z M141.6,162l0-14.3c0-0.3-0.1-0.5-0.3-0.7c-3.8-4.5-9-6.8-15-6.8c-8.4,0-15.8,5.5-15.8,14.4s7.5,14.5,15.8,14.5
			c5.5,0,11.1-1.8,15-6.3C141.5,162.5,141.6,162.3,141.6,162z"/>
		<path class="st1" d="M140.2,191.9c0.5-0.3,1.1-0.1,1.4,0.3c1.4,2,3.4,3.2,5.7,3.2c4.5,0,8.2-4.3,8.2-11.7v-59.4
			c0-0.6,0.5-1.2,1.1-1.2h0.4c0.6,0,1.1,0.5,1.1,1.2v59.4c0,9-4.9,14.4-10.8,14.4c-3.3,0-6-1.6-7.9-4.4c-0.4-0.6-0.2-1.4,0.4-1.7
			L140.2,191.9z"/>
		<path class="st1" d="M174.6,130.5c-0.5-0.4-0.5-1.2,0-1.7c4.1-3.6,9-5.6,15.1-5.6c6.7,0,15.7,4.3,15.7,17.8v28.5
			c0,0.6-0.5,1.1-1.1,1.1h-0.4c-0.6,0-1.1-0.5-1.1-1.1v-3.4c-4.2,3.8-9.7,5.4-15.2,5.4c-9.7,0-18.4-6.7-18.4-17.1
			c0-10.4,8.6-17,18.4-17c6.4,0,11.6,2.5,15.2,6l0-2.4c0-11.7-7.4-15.2-13.1-15.2c-5.5,0-9.9,1.8-13.3,4.9c-0.4,0.4-1.1,0.4-1.5,0
			L174.6,130.5z M202.7,162l0-14.3c0-0.3-0.1-0.5-0.3-0.7c-3.8-4.5-9-6.8-15-6.8c-8.4,0-15.8,5.5-15.8,14.4s7.5,14.5,15.8,14.5
			c5.5,0,11.1-1.8,15-6.3C202.6,162.5,202.7,162.3,202.7,162z"/>
		<path class="st0" d="M90.6,171c-0.8,0-1.5-0.7-1.5-1.5V138c0-8.2,6.6-14.8,14.8-14.8h1.6c0.8,0,1.5,0.7,1.5,1.5s-0.7,1.5-1.5,1.5
			h-1.6c-6.5,0-11.8,5.3-11.8,11.8v31.5C92.1,170.4,91.4,171,90.6,171z"/>
		<path class="st0" d="M217.7,171c-0.8,0-1.5-0.7-1.5-1.5V138c0-8.2,6.6-14.8,14.8-14.8h1.6c0.8,0,1.5,0.7,1.5,1.5s-0.7,1.5-1.5,1.5
			H231c-6.5,0-11.8,5.3-11.8,11.8v31.5C219.2,170.3,218.5,171,217.7,171z"/>
		<path class="st1" d="M53.1,136.4h0.2c2.1,0,3.8,1.7,3.8,3.8v0c0,2.1-1.7,3.8-3.8,3.8h-0.2c-2.1,0-3.8-1.7-3.8-3.8v0
			C49.3,138.1,51,136.4,53.1,136.4z"/>
		<path class="st1" d="M53.1,151.1h0.2c2.1,0,3.8,1.7,3.8,3.8v0c0,2.1-1.7,3.8-3.8,3.8h-0.2c-2.1,0-3.8-1.7-3.8-3.8v0
			C49.3,152.8,51,151.1,53.1,151.1z"/>
		<path class="st1" d="M156.6,110.4h0.2c2.1,0,3.8,1.7,3.8,3.8v0c0,2.1-1.7,3.8-3.8,3.8h-0.2c-2.1,0-3.8-1.7-3.8-3.8v0
			C152.8,112.2,154.5,110.4,156.6,110.4z"/>
		<path class="st1" d="M195.4,117.5h-11.8c-1.7,0-3.1-1.4-3.1-3.2l0,0c0-1.8,1.4-3.2,3.1-3.2h11.8c1.7,0,3.1,1.4,3.1,3.2l0,0
			C198.5,116,197.1,117.5,195.4,117.5z"/>
	</g>
</g>
</svg>
