<?xml version="1.0" encoding="utf-8"?>
<!-- Generator: Adobe Illustrator 27.0.0, SVG Export Plug-In . SVG Version: 6.00 Build 0)  -->
<svg version="1.1" id="Vrstva_1" xmlns="http://www.w3.org/2000/svg" xmlns:xlink="http://www.w3.org/1999/xlink" x="0px" y="0px"
	 viewBox="0 0 208.4 123.6" style="enable-background:new 0 0 208.4 123.6;" xml:space="preserve">
<style type="text/css">
	.st0{stroke:#fffff;stroke-width:0.25;stroke-miterlimit:10;}
</style>
<path d="M54.6,18.2c-3.5-3-7.1-5.1-13.3-5.1c-10.3,0-17.7,8.3-17.7,19.7v8H23c-1.8,0-3.3,1.5-3.3,3.3c0,1.8,1.5,3.3,3.3,3.3h0.6
	v65.1c0,1.8,1.5,3.3,3.3,3.3c1.8,0,3.3-1.5,3.3-3.3V47.4h10.5c1.8,0,3.3-1.5,3.3-3.3c0-1.8-1.5-3.3-3.3-3.3H30.2v-8
	c0-7.7,4.6-13.1,11.1-13.1c3.8,0,6,0.8,9,3.5c1.3,1.2,3.4,1,4.6-0.3c0.6-0.7,0.9-1.5,0.8-2.4C55.7,19.6,55.3,18.8,54.6,18.2z"/>
<path class="st0" d="M74.4,48.2c-0.5-0.4-0.5-1.2,0-1.7c4.1-3.6,9-5.6,15.1-5.6c6.7,0,15.7,4.3,15.7,17.8v28.5
	c0,0.6-0.5,1.1-1.1,1.1h-0.4c-0.6,0-1.1-0.5-1.1-1.1v-3.4c-4.2,3.8-9.7,5.4-15.2,5.4c-9.7,0-18.4-6.7-18.4-17.1
	c0-10.4,8.6-17,18.4-17c6.4,0,11.6,2.5,15.2,6l0-2.4c0-11.7-7.4-15.2-13.1-15.2c-5.5,0-9.9,1.8-13.3,4.9c-0.4,0.4-1.1,0.4-1.5,0
	L74.4,48.2z M102.6,79.7l0-14.3c0-0.3-0.1-0.5-0.3-0.7c-3.8-4.5-9-6.8-15-6.8c-8.4,0-15.8,5.5-15.8,14.4S79,86.7,87.3,86.7
	c5.5,0,11.1-1.8,15-6.3C102.5,80.2,102.6,79.9,102.6,79.7z"/>
<path class="st0" d="M101.1,109.5c0.5-0.3,1.1-0.1,1.4,0.3c1.4,2,3.4,3.2,5.7,3.2c4.5,0,8.2-4.3,8.2-11.7V42c0-0.6,0.5-1.2,1.1-1.2
	h0.4c0.6,0,1.1,0.5,1.1,1.2v59.4c0,9-4.9,14.4-10.8,14.4c-3.3,0-6-1.6-7.9-4.4c-0.4-0.6-0.2-1.4,0.4-1.7L101.1,109.5z"/>
<path class="st0" d="M135.5,48.2c-0.5-0.4-0.5-1.2,0-1.7c4.1-3.6,9-5.6,15.1-5.6c6.7,0,15.7,4.3,15.7,17.8v28.5
	c0,0.6-0.5,1.1-1.1,1.1h-0.4c-0.6,0-1.1-0.5-1.1-1.1v-3.4c-4.2,3.8-9.7,5.4-15.2,5.4c-9.7,0-18.4-6.7-18.4-17.1
	c0-10.4,8.6-17,18.4-17c6.4,0,11.6,2.5,15.2,6l0-2.4c0-11.7-7.4-15.2-13.1-15.2c-5.5,0-9.9,1.8-13.3,4.9c-0.4,0.4-1.1,0.4-1.5,0
	L135.5,48.2z M163.6,79.7l0-14.3c0-0.3-0.1-0.5-0.3-0.7c-3.8-4.5-9-6.8-15-6.8c-8.4,0-15.8,5.5-15.8,14.4s7.5,14.5,15.8,14.5
	c5.5,0,11.1-1.8,15-6.3C163.6,80.2,163.6,79.9,163.6,79.7z"/>
<path d="M51.5,88.7c-0.8,0-1.5-0.7-1.5-1.5V55.7c0-8.2,6.6-14.8,14.8-14.8h1.6c0.8,0,1.5,0.7,1.5,1.5s-0.7,1.5-1.5,1.5h-1.6
	c-6.5,0-11.8,5.3-11.8,11.8v31.5C53,88,52.3,88.7,51.5,88.7z"/>
<path d="M178.6,88.6c-0.8,0-1.5-0.7-1.5-1.5V55.6c0-8.2,6.6-14.8,14.8-14.8h1.6c0.8,0,1.5,0.7,1.5,1.5s-0.7,1.5-1.5,1.5H192
	c-6.5,0-11.8,5.3-11.8,11.8v31.5C180.1,88,179.5,88.6,178.6,88.6z"/>
<path class="st0" d="M14,54h0.2c2.1,0,3.8,1.7,3.8,3.8v0c0,2.1-1.7,3.8-3.8,3.8H14c-2.1,0-3.8-1.7-3.8-3.8v0
	C10.2,55.7,11.9,54,14,54z"/>
<path class="st0" d="M14,68.8h0.2c2.1,0,3.8,1.7,3.8,3.8v0c0,2.1-1.7,3.8-3.8,3.8H14c-2.1,0-3.8-1.7-3.8-3.8v0
	C10.2,70.5,11.9,68.8,14,68.8z"/>
<path class="st0" d="M117.5,28.1h0.2c2.1,0,3.8,1.7,3.8,3.8v0c0,2.1-1.7,3.8-3.8,3.8h-0.2c-2.1,0-3.8-1.7-3.8-3.8v0
	C113.7,29.8,115.4,28.1,117.5,28.1z"/>
<path class="st0" d="M156.3,35.2h-11.8c-1.7,0-3.1-1.4-3.1-3.2v0c0-1.8,1.4-3.2,3.1-3.2h11.8c1.7,0,3.1,1.4,3.1,3.2v0
	C159.4,33.7,158,35.2,156.3,35.2z"/>
</svg>
